<?xml version="1.0" encoding="UTF-8"?>
<svg version="1.1" xmlns="http://www.w3.org/2000/svg" width="512" height="512">
<path d="M0 0 C0.63164062 0.33902344 1.26328125 0.67804687 1.9140625 1.02734375 C8.93314268 5.37175241 13.5504357 12.60155218 15.75 20.4375 C15.93046875 21.24058594 16.1109375 22.04367188 16.296875 22.87109375 C17.11045707 25.33443946 17.97993851 26.39669877 20 28 C22.92554285 28.97518095 24.79676136 29.12688967 27.84240723 29.13130188 C28.84033295 29.13531006 29.83825867 29.13931824 30.86642456 29.14344788 C31.96044586 29.14291916 33.05446716 29.14239044 34.18164062 29.1418457 C35.33483795 29.14532013 36.48803528 29.14879456 37.67617798 29.15237427 C40.18560807 29.15973577 42.6950447 29.16507905 45.20448303 29.16866493 C49.18157134 29.17582685 53.15857475 29.19114152 57.13562012 29.21000671 C58.49912256 29.21634434 59.86262507 29.22266996 61.22612762 29.22898388 C61.90906608 29.23214969 62.59200453 29.2353155 63.29563808 29.23857725 C72.5522192 29.28057488 81.80875971 29.31358812 91.06542969 29.32592773 C97.31142402 29.33433943 103.55719857 29.35694808 109.80308294 29.3952834 C113.10388344 29.41494799 116.40428611 29.42525217 119.70515442 29.42244911 C123.39816976 29.42008561 127.09030683 29.44234591 130.78320312 29.4699707 C131.86103058 29.46336929 132.93885803 29.45676788 134.04934692 29.44996643 C144.72651599 29.58041353 153.32518853 32.39875066 161.05859375 39.85546875 C167.65893022 47.14638369 170.24637187 54.55666772 170.25726891 64.4523735 C170.26077498 65.1730253 170.26428105 65.89367709 170.26789337 66.63616681 C170.27718098 69.04566925 170.27229094 71.4549286 170.26742554 73.86444092 C170.27116313 75.61156004 170.27576509 77.35867748 170.28115618 79.10579228 C170.29338813 83.90302658 170.29312548 88.70019115 170.29076743 93.49743748 C170.29035931 98.67277158 170.30139793 103.84808331 170.31088257 109.02340698 C170.32749464 119.16154139 170.33299221 129.29965254 170.33410732 139.43779942 C170.3350577 147.6788656 170.3391675 155.9199241 170.34550858 164.16098785 C170.36312158 187.52702446 170.37234736 210.89304269 170.37084763 234.25908598 C170.37076772 235.51872433 170.3706878 236.77836267 170.37060547 238.07617188 C170.37052371 239.33734861 170.37044195 240.59852535 170.37035771 241.89791957 C170.3695448 262.33723165 170.38868352 282.77647003 170.4168822 303.2157608 C170.44560936 324.2037611 170.45942259 345.19172545 170.45769465 366.17974591 C170.45703069 377.96248057 170.46252568 389.74513797 170.48405075 401.52785492 C170.50226031 411.55996048 170.50661169 421.59195377 170.4930319 431.62406871 C170.48650116 436.74138205 170.48638905 441.85847999 170.5037384 446.97577286 C170.51946923 451.66393908 170.51660527 456.35171909 170.49917014 461.03987589 C170.49610029 462.73231588 170.49973208 464.4247847 170.51089029 466.11719069 C170.59304455 479.46608317 169.09779978 489.85324328 159.515625 499.83203125 C153.51953443 504.99946955 146.51518871 508.11973867 138.59876156 508.13422108 C137.47033523 508.13867892 136.34190891 508.14313676 135.17928785 508.14772969 C133.31162656 508.14745315 133.31162656 508.14745315 131.40623474 508.14717102 C129.42836687 508.15268605 129.42836687 508.15268605 127.41054207 508.1583125 C123.74251482 508.16833769 120.07450394 508.17205014 116.40646493 508.17470181 C112.45331715 508.1786034 108.50018235 508.18818194 104.54704285 508.19691467 C94.99532797 508.21668467 85.44361202 508.22674662 75.89188179 508.23564246 C71.39384825 508.24002507 66.89581589 508.245392 62.39778328 508.25063133 C47.44474628 508.26764524 32.49171001 508.28213889 17.53866482 508.28938007 C13.65753109 508.29128998 9.77639737 508.29321031 5.89526367 508.29516602 C4.93062409 508.29564976 3.96598452 508.2961335 2.97211344 508.2966319 C-12.65057132 508.30493022 -28.27317945 508.33026307 -43.89583076 508.36274669 C-59.93537158 508.39582516 -75.97487348 508.41382961 -92.01444858 508.41702431 C-101.0199861 508.41918884 -110.02541194 508.42792886 -119.03091621 508.45348549 C-126.70149405 508.47520336 -134.37193308 508.48323762 -142.04253817 508.47351871 C-145.95469618 508.46897694 -149.86656787 508.47085271 -153.77868652 508.49028015 C-157.364756 508.50793419 -160.95033078 508.50689643 -164.53640568 508.49138286 C-166.43865418 508.48789162 -168.34090801 508.50401656 -170.24308401 508.52098733 C-181.66376749 508.43552355 -189.51094855 505.39377143 -197.796875 497.51171875 C-203.98169891 490.46058086 -206.1224926 483.09807149 -206.13142776 473.91118336 C-206.1334804 473.19339391 -206.13553303 472.47560445 -206.13764787 471.73606381 C-206.14332573 469.31831356 -206.14185965 466.90062014 -206.14044189 464.48286438 C-206.14302508 462.73691037 -206.14603811 460.99095695 -206.1494453 459.24500436 C-206.15752405 454.43714702 -206.15930535 449.62930461 -206.16004276 444.82144129 C-206.1618918 439.63996455 -206.16943839 434.45849558 -206.17617798 429.27702332 C-206.18976814 417.94230768 -206.19578711 406.60759559 -206.20018864 395.27287316 C-206.20294996 388.19717029 -206.20718712 381.12146878 -206.21169281 374.04576683 C-206.22388647 354.46037157 -206.23418553 334.87497741 -206.2375679 315.28957844 C-206.23778747 314.03571581 -206.23800703 312.78185318 -206.23823325 311.48999472 C-206.23845153 310.2331083 -206.23866981 308.97622189 -206.2388947 307.68124801 C-206.23933817 305.13425974 -206.23978473 302.58727147 -206.24023438 300.0402832 C-206.2404558 298.77688534 -206.24067723 297.51348748 -206.24090537 296.21180483 C-206.24485367 275.73863349 -206.26230825 255.26549773 -206.2855939 234.79234014 C-206.30930061 213.77958804 -206.32176945 192.7668538 -206.32293582 171.7540881 C-206.32385297 159.95349928 -206.32961544 148.15295682 -206.34775543 136.35238075 C-206.36314724 126.3040595 -206.36828231 116.25579893 -206.36001733 106.20746813 C-206.35610755 101.08032999 -206.35705646 95.95331409 -206.37107468 90.82619095 C-206.38379379 86.1312851 -206.38263352 81.43659362 -206.37048396 76.74168815 C-206.36852352 75.04448316 -206.37162142 73.34726308 -206.38032833 71.65007929 C-206.44285156 58.63750078 -205.30897513 48.88613159 -196 39 C-187.50801402 31.20435687 -179.29616194 29.55215602 -168.0637207 29.61523438 C-166.89040192 29.6098616 -165.71708313 29.60448883 -164.50820923 29.59895325 C-161.97158259 29.58920086 -159.4349227 29.58622338 -156.89827919 29.58930969 C-152.88450422 29.59379614 -148.87117653 29.58019183 -144.85746765 29.56091309 C-135.61831341 29.51996444 -126.379168 29.50851191 -117.13993835 29.49738312 C-108.6592408 29.48686707 -100.17868036 29.47007886 -91.69806737 29.42928743 C-87.06850671 29.40801001 -82.4392683 29.40978399 -77.80964661 29.41540527 C-75.3891261 29.40606745 -72.96860861 29.39589934 -70.5480957 29.38476562 C-69.44720108 29.39091385 -68.34630646 29.39706207 -67.21205139 29.40339661 C-60.07474644 29.44886848 -60.07474644 29.44886848 -54 26 C-52.69958716 23.7805208 -52.69958716 23.7805208 -51.9375 21.25 C-49.41569088 14.32006855 -46.57683057 9.03274954 -41 4 C-40.278125 3.319375 -39.55625 2.63875 -38.8125 1.9375 C-27.33650811 -5.9681833 -12.2360504 -6.8913072 0 0 Z " fill="#ECF5FE" transform="translate(274,4)"/>
<path d="M0 0 C0.75219315 -0.00043808 1.50438629 -0.00087616 2.27937317 -0.00132751 C4.7360032 0.00074253 7.19192849 0.02398757 9.6484375 0.04760742 C11.36335884 0.05320975 13.07828501 0.05747684 14.79321289 0.06047058 C19.28462212 0.07186923 23.77573561 0.10129295 28.26702881 0.13458252 C33.66775909 0.17081779 39.06858882 0.1844683 44.46940613 0.20194244 C52.6542883 0.23093376 60.83852285 0.28845525 69.0234375 0.34057617 C69.0234375 11.56057617 69.0234375 22.78057617 69.0234375 34.34057617 C62.28873047 34.3618457 62.28873047 34.3618457 55.41796875 34.38354492 C51.83266194 34.40879829 48.24747372 34.43902683 44.66223907 34.4726181 C40.8804573 34.50668753 37.0990818 34.53203648 33.31713867 34.53613281 C29.67279046 34.54041884 26.02935374 34.56890443 22.38529015 34.61400795 C20.99672446 34.62697363 19.60804964 34.63129384 18.21943092 34.62672997 C16.27096488 34.62181861 14.32250342 34.65080221 12.37426758 34.68115234 C11.2661824 34.68781418 10.15809723 34.69447601 9.01643372 34.70133972 C4.97160269 35.56522435 3.61791886 37.15788127 1.0234375 40.34057617 C0.28127402 43.55966059 0.28127402 43.55966059 0.39981842 47.14194489 C0.39315041 47.81650048 0.3864824 48.49105607 0.37961233 49.18605274 C0.36334187 51.45124246 0.38276595 53.71471202 0.40197754 55.9798584 C0.39764943 57.61816295 0.39113425 59.25646294 0.38261747 60.89475107 C0.36559199 65.40042037 0.3798307 69.90553567 0.39913225 74.41117597 C0.4145332 79.26878359 0.40116413 84.12632218 0.39138794 88.9839325 C0.37684535 98.50143586 0.38911156 108.01872625 0.41050118 117.53620946 C0.4344863 128.61431617 0.43279834 139.69237381 0.43019527 150.77050072 C0.42650321 170.5336496 0.44734693 190.29669799 0.48144531 210.05981445 C0.51453786 229.24701477 0.52870382 248.43410961 0.52246094 267.62133789 C0.51570006 288.50337624 0.51814856 309.38537036 0.53782034 330.26740217 C0.53885982 331.37118864 0.53989931 332.47497511 0.5409703 333.61220965 C0.54306123 335.8292507 0.5451722 338.04629174 0.54730347 340.26333275 C0.55420509 347.98954917 0.55486737 355.71575197 0.55342102 363.44197083 C0.55198273 372.85469959 0.56164635 382.26734222 0.58536738 391.68004239 C0.59724426 396.48466415 0.60434131 401.28916573 0.59852982 406.0938015 C0.59337017 410.48933409 0.60200297 414.88461244 0.62180442 419.28010148 C0.62655668 420.87289019 0.62622833 422.46570355 0.62039405 424.05848867 C0.61324294 426.21903292 0.62444302 428.37872766 0.64032745 430.53920746 C0.64268426 432.34128166 0.64268426 432.34128166 0.64508867 434.17976141 C1.06184199 437.6614163 1.93401295 439.55118761 4.0234375 442.34057617 C6.49189819 443.57480652 8.11649858 443.4704043 10.8783083 443.47759056 C11.91029199 443.4826651 12.94227568 443.48773965 14.00553161 443.49296796 C15.71925823 443.4937146 15.71925823 443.4937146 17.46760559 443.49447632 C18.67451811 443.49885857 19.88143063 443.50324083 21.12491626 443.50775588 C24.48562202 443.51883792 27.84628113 443.52537371 31.20699847 443.52993703 C34.82741594 443.53588666 38.44781618 443.54749802 42.06822205 443.55822754 C50.81646039 443.58276505 59.56470444 443.59738006 68.31296661 443.61028761 C70.78277763 443.61399836 73.25258807 443.61797168 75.72239852 443.62204027 C91.05141405 443.64727407 106.38043045 443.66933258 121.70946217 443.68176842 C125.26114213 443.68469823 128.81282206 443.68765988 132.36450195 443.69067383 C133.24728137 443.69141988 134.13006079 443.69216593 135.0395911 443.69293459 C149.34656989 443.7055937 163.65342456 443.73882352 177.96034531 443.78047566 C192.64042471 443.82286479 207.32044051 443.84645989 222.00058097 443.85168898 C230.24644689 443.85510639 238.49211879 443.86690034 246.73792458 443.89979172 C253.75908226 443.92775188 260.78000617 443.9388094 267.80121521 443.92759626 C271.3847319 443.92239925 274.96775873 443.92536275 278.55120468 443.9500618 C282.43377663 443.97659968 286.31567587 443.96452928 290.19831848 443.94857788 C291.33411073 443.96245997 292.46990298 443.97634206 293.64011317 443.99064481 C294.67992011 443.98007287 295.71972705 443.96950093 296.79104328 443.95860863 C297.68723828 443.95996516 298.58343327 443.96132169 299.50678569 443.96271932 C303.23000231 443.04230049 304.71464194 441.35395321 307.0234375 438.34057617 C307.76790286 435.11473422 307.76790286 435.11473422 307.6526432 431.52359009 C307.65991041 430.84734612 307.66717761 430.17110216 307.67466503 429.47436595 C307.69294437 427.20345579 307.67554848 424.93422849 307.65835571 422.66333008 C307.66411581 421.02089892 307.67205618 419.37847421 307.68199193 417.736063 C307.70290408 413.21901158 307.69253038 408.70248694 307.67706084 404.18543339 C307.66576907 399.31554114 307.68319923 394.44574081 307.69696045 389.5758667 C307.71922065 380.0343147 307.71437928 370.4929591 307.69989724 360.95139933 C307.68861594 353.19839774 307.6870693 345.44545128 307.69251633 337.69244385 C307.69328249 336.58997114 307.69404866 335.48749843 307.69483804 334.35161746 C307.69643663 332.11212776 307.69805769 329.87263809 307.699701 327.63314843 C307.71396665 306.62198058 307.69755295 285.61092172 307.67069916 264.59977174 C307.64835967 246.56214675 307.65223957 228.52468263 307.67529297 210.48706055 C307.70203654 189.55227445 307.71259328 168.61758392 307.69723165 147.68278313 C307.69563887 145.45142493 307.69406701 143.22006672 307.69251633 140.9887085 C307.69174495 139.89077111 307.69097357 138.79283372 307.69017882 137.6616255 C307.68585749 129.91585286 307.69315769 122.17014072 307.70491409 114.42437744 C307.7189216 104.98782104 307.71517599 95.55147266 307.68851037 86.11494017 C307.67534863 81.2980857 307.67025988 76.48157834 307.68675613 71.66472626 C307.70162003 67.25794675 307.6935268 62.85183712 307.66686837 58.44511867 C307.66126822 56.84829204 307.66415816 55.25140919 307.67624731 53.6546185 C307.69139554 51.48812202 307.67592398 49.32393689 307.6526432 47.15756226 C307.65183144 45.95314169 307.65101968 44.74872112 307.65018332 43.50780296 C306.83933401 39.41021895 305.24486238 37.91479261 302.0234375 35.34057617 C299.03406487 34.5879883 299.03406487 34.5879883 295.7644043 34.68115234 C294.52349533 34.66150925 293.28258636 34.64186615 292.0040741 34.62162781 C290.66026669 34.62507071 289.31646057 34.62905569 287.97265625 34.63354492 C286.58972502 34.62042217 285.20681294 34.60511616 283.82392883 34.58772278 C280.19560607 34.54792573 276.56778528 34.53768592 272.93927002 34.53369141 C269.23214785 34.52434973 265.52531033 34.48719992 261.81835938 34.4519043 C254.55300729 34.38476439 247.28959129 34.3638991 240.0234375 34.34057617 C240.0234375 23.12057617 240.0234375 11.90057617 240.0234375 0.34057617 C258.29968495 0.18014093 258.29968495 0.18014093 266.14648438 0.14526367 C271.48120221 0.12143887 276.81564298 0.09338751 282.15014648 0.03881836 C286.45550746 -0.00494289 290.76057093 -0.02862419 295.06613731 -0.0389328 C296.70104334 -0.04627026 298.33593481 -0.06059731 299.97071266 -0.08234406 C312.86523586 -0.24690605 323.42197208 0.88160504 333.08203125 10.19604492 C339.68236772 17.48695986 342.26980937 24.89724389 342.28070641 34.79294968 C342.28421248 35.51360147 342.28771855 36.23425326 342.29133087 36.97674298 C342.30061848 39.38624542 342.29572844 41.79550477 342.29086304 44.20501709 C342.29460063 45.95213621 342.29920259 47.69925366 342.30459368 49.44636846 C342.31682563 54.24360275 342.31656298 59.04076732 342.31420493 63.83801365 C342.31379681 69.01334775 342.32483543 74.18865948 342.33432007 79.36398315 C342.35093214 89.50211756 342.35642971 99.64022872 342.35754482 109.7783756 C342.3584952 118.01944177 342.362605 126.26050028 342.36894608 134.50156403 C342.38655908 157.86760063 342.39578486 181.23361886 342.39428513 204.59966215 C342.39420522 205.8593005 342.3941253 207.11893884 342.39404297 208.41674805 C342.39396121 209.67792478 342.39387945 210.93910152 342.39379521 212.23849574 C342.3929823 232.67780782 342.41212102 253.1170462 342.4403197 273.55633697 C342.46904686 294.54433727 342.48286009 315.53230162 342.48113215 336.52032208 C342.48046819 348.30305674 342.48596318 360.08571414 342.50748825 371.86843109 C342.52569781 381.90053665 342.53004919 391.93252995 342.5164694 401.96464488 C342.50993866 407.08195823 342.50982655 412.19905616 342.5271759 417.31634903 C342.54290673 422.00451525 342.54004277 426.69229526 342.52260764 431.38045207 C342.51953779 433.07289206 342.52316958 434.76536087 342.53432779 436.45776686 C342.61648205 449.80665934 341.12123728 460.19381945 331.5390625 470.17260742 C325.54297193 475.34004572 318.53862621 478.46031485 310.62219906 478.47479725 C309.49377273 478.47925509 308.36534641 478.48371294 307.20272535 478.48830587 C305.33506406 478.48802932 305.33506406 478.48802932 303.42967224 478.48774719 C301.45180437 478.49326222 301.45180437 478.49326222 299.43397957 478.49888867 C295.76595232 478.50891387 292.09794144 478.51262631 288.42990243 478.51527798 C284.47675465 478.51917957 280.52361985 478.52875811 276.57048035 478.53749084 C267.01876547 478.55726084 257.46704952 478.56732279 247.91531929 478.57621863 C243.41728575 478.58060124 238.91925339 478.58596817 234.42122078 478.5912075 C219.46818378 478.60822141 204.51514751 478.62271506 189.56210232 478.62995625 C185.68096859 478.63186615 181.79983487 478.63378648 177.91870117 478.63574219 C176.47174181 478.6364678 176.47174181 478.6364678 174.99555094 478.63720807 C159.37286618 478.64550639 143.75025805 478.67083924 128.12760674 478.70332287 C112.08806592 478.73640133 96.04856402 478.75440578 80.00898892 478.75760049 C71.0034514 478.75976501 61.99802556 478.76850503 52.99252129 478.79406166 C45.32194345 478.81577953 37.65150442 478.82381379 29.98089933 478.81409488 C26.06874132 478.80955312 22.15686963 478.81142889 18.24475098 478.83085632 C14.6586815 478.84851036 11.07310672 478.8474726 7.48703182 478.83195903 C5.58478332 478.82846779 3.68252949 478.84459273 1.78035349 478.8615635 C-9.64032999 478.77609972 -17.48751105 475.7343476 -25.7734375 467.85229492 C-31.95826141 460.80115703 -34.0990551 453.43864766 -34.10799026 444.25175953 C-34.1100429 443.53397008 -34.11209553 442.81618063 -34.11421037 442.07663998 C-34.11988823 439.65888973 -34.11842215 437.24119631 -34.11700439 434.82344055 C-34.11958758 433.07748654 -34.12260061 431.33153312 -34.1260078 429.58558053 C-34.13408655 424.77772319 -34.13586785 419.96988078 -34.13660526 415.16201746 C-34.1384543 409.98054072 -34.14600089 404.79907175 -34.15274048 399.61759949 C-34.16633064 388.28288386 -34.17234961 376.94817176 -34.17675114 365.61344934 C-34.17951246 358.53774646 -34.18374962 351.46204495 -34.18825531 344.386343 C-34.20044897 324.80094774 -34.21074803 305.21555358 -34.2141304 285.63015461 C-34.21434997 284.37629198 -34.21456953 283.12242935 -34.21479575 281.83057089 C-34.21501403 280.57368447 -34.21523231 279.31679806 -34.2154572 278.02182418 C-34.21590067 275.47483591 -34.21634723 272.92784764 -34.21679688 270.38085938 C-34.2170183 269.11746151 -34.21723973 267.85406365 -34.21746787 266.552381 C-34.22141617 246.07920966 -34.23887075 225.6060739 -34.2621564 205.13291631 C-34.28586311 184.12016421 -34.29833195 163.10742997 -34.29949832 142.09466428 C-34.30041547 130.29407545 -34.30617794 118.49353299 -34.32431793 106.69295692 C-34.33970974 96.64463567 -34.34484481 86.5963751 -34.33657983 76.5480443 C-34.33267005 71.42090616 -34.33361896 66.29389026 -34.34763718 61.16676712 C-34.36035629 56.47186128 -34.35919602 51.77716979 -34.34704646 47.08226433 C-34.34508602 45.38505933 -34.34818392 43.68783925 -34.35689083 41.99065546 C-34.41941406 28.97807695 -33.28553763 19.22670776 -23.9765625 9.34057617 C-16.9647525 2.90373459 -9.54117765 -0.14887565 0 0 Z " fill="#D1A677" transform="translate(101.9765625,33.659423828125)"/>
<path d="M0 0 C13.4477143 -0.29847589 24.75084926 0.10577988 35.4765625 9.21875 C44.8564576 18.65447781 46.88659173 28.94702464 46.90429688 41.83203125 C46.90002686 42.59032227 46.89575684 43.34861328 46.89135742 44.12988281 C46.88277808 46.4585624 46.91179474 48.78483865 46.94335938 51.11328125 C46.94497014 52.60546802 46.94439625 54.0976591 46.94140625 55.58984375 C46.95264023 56.27951233 46.96387421 56.96918091 46.97544861 57.67974854 C46.9260723 61.1077315 46.47972046 63.14089288 44.72680664 66.11230469 C42.22077973 68.40460196 40.78633751 68.9208 37.4453125 69.19921875 C37.46102295 69.89893799 37.4767334 70.59865723 37.49291992 71.31958008 C37.5560358 74.55020771 37.5945433 77.78070493 37.6328125 81.01171875 C37.65794922 82.11193359 37.68308594 83.21214844 37.70898438 84.34570312 C37.84738665 99.98516002 32.91031365 112.39874047 22.1171875 123.71875 C16.59727262 128.84323238 10.68695614 131.85421939 3.62890625 134.359375 C2.6536499 134.70750244 1.67839355 135.05562988 0.67358398 135.41430664 C-0.06174561 135.67332764 -0.7970752 135.93234863 -1.5546875 136.19921875 C-0.88002441 136.21380127 -0.20536133 136.22838379 0.48974609 136.2434082 C3.60045832 136.31871458 6.71019219 136.41509719 9.8203125 136.51171875 C11.41166016 136.54555664 11.41166016 136.54555664 13.03515625 136.58007812 C26.79934833 137.04451405 37.2693783 141.17306885 46.875 151.203125 C51.55179502 157.14800623 54.52351036 164.02265944 54.62231445 171.59716797 C54.64156731 172.88903519 54.64156731 172.88903519 54.66120911 174.20700073 C54.66859604 175.12997955 54.67598297 176.05295837 54.68359375 177.00390625 C54.6916655 177.9606424 54.69973724 178.91737854 54.70805359 179.90310669 C54.7218689 181.92545777 54.73260244 183.94783191 54.74047852 185.97021484 C54.7520149 188.03603963 54.77249272 190.10183424 54.80200195 192.16748047 C54.84467835 195.15482815 54.86084639 198.14129158 54.87109375 201.12890625 C54.88860184 202.04783661 54.90610992 202.96676697 54.92414856 203.9135437 C54.90520849 209.53004093 54.21036897 212.75137554 50.4453125 217.19921875 C44.22928011 222.9370948 39.03308956 223.47784355 30.921875 223.33984375 C28.75162845 223.32086644 26.58138097 223.3019955 24.41113281 223.28320312 C22.54817566 223.26181274 22.54817566 223.26181274 20.64758301 223.23999023 C15.90672915 223.1893148 11.16588635 223.17593079 6.42480469 223.16210938 C-2.13129068 223.13562174 -10.68696049 223.08434798 -19.24281693 223.01528168 C-24.24522799 222.97547078 -29.24744839 222.94339743 -34.25 222.92822266 C-39.16026889 222.91308399 -44.07005855 222.87875454 -48.98011398 222.83090973 C-50.83397653 222.81614045 -52.68790697 222.80818031 -54.54182816 222.8073349 C-57.11776859 222.80496996 -59.69235908 222.77795391 -62.26806641 222.74511719 C-63.39942268 222.75266273 -63.39942268 222.75266273 -64.55363464 222.76036072 C-69.68865613 222.65910925 -72.58535127 221.41208026 -76.5546875 218.19921875 C-80.10187221 214.26855461 -81.66012092 211.35592594 -81.73168945 206.07006836 C-81.74452469 205.24167953 -81.75735992 204.41329071 -81.77058411 203.55979919 C-81.77797104 202.66608109 -81.78535797 201.77236298 -81.79296875 200.8515625 C-81.8010405 199.92509415 -81.80911224 198.99862579 -81.81742859 198.04408264 C-81.83126378 196.079619 -81.84198847 194.11513138 -81.84985352 192.15063477 C-81.86133784 190.15381769 -81.88173295 188.15703044 -81.91137695 186.16040039 C-81.95435393 183.26557686 -81.97026751 180.37166675 -81.98046875 177.4765625 C-81.99797684 176.59701401 -82.01548492 175.71746552 -82.03352356 174.81126404 C-81.99551459 163.76216742 -77.26590685 155.10362945 -69.70703125 147.2890625 C-62.58157804 140.61691844 -54.63464104 137.24474893 -44.9140625 136.8828125 C-43.30917969 136.8199707 -43.30917969 136.8199707 -41.671875 136.75585938 C-40.56070313 136.71654297 -39.44953125 136.67722656 -38.3046875 136.63671875 C-37.17804688 136.59353516 -36.05140625 136.55035156 -34.890625 136.50585938 C-32.11209796 136.3998986 -29.33348359 136.29782733 -26.5546875 136.19921875 C-27.79774658 135.73165161 -27.79774658 135.73165161 -29.06591797 135.25463867 C-36.22470311 132.5197749 -41.85022719 129.29799312 -47.5546875 124.19921875 C-48.18117187 123.65394531 -48.80765625 123.10867188 -49.453125 122.546875 C-57.99003372 114.62507106 -63.78370573 103.43108611 -64.8737793 91.79223633 C-64.94539645 88.33579192 -64.90632091 84.90475479 -64.8046875 81.44921875 C-64.78664062 80.26328125 -64.76859375 79.07734375 -64.75 77.85546875 C-64.70344668 74.9691631 -64.63808159 72.08465423 -64.5546875 69.19921875 C-65.34359375 69.06257813 -66.1325 68.9259375 -66.9453125 68.78515625 C-69.84405378 68.13424129 -70.76967109 67.51974008 -72.5546875 65.19921875 C-74.33643102 59.8539882 -73.82027406 54.07639133 -73.84985352 48.47802734 C-73.86130129 46.97304834 -73.88163728 45.46810759 -73.91137695 43.96337891 C-74.158157 31.46445183 -72.83011503 21.12558905 -64.546875 11.20703125 C-57.20304535 3.80560294 -49.39730423 0.94096379 -39.0625 0.78515625 C-38.24750031 0.76556351 -37.43250061 0.74597076 -36.59280396 0.7257843 C-33.9552001 0.66524918 -31.31760686 0.61874148 -28.6796875 0.57421875 C-26.86295045 0.53909017 -25.04621866 0.50368863 -23.22949219 0.46801758 C-19.64233185 0.39983597 -16.05514205 0.33880387 -12.46777344 0.28271484 C-8.31075478 0.21622734 -4.1559807 0.11342868 0 0 Z " fill="#F5E1C0" transform="translate(269.5546875,135.80078125)"/>
<path d="M0 0 C0.63164062 0.33902344 1.26328125 0.67804687 1.9140625 1.02734375 C8.93314268 5.37175241 13.5504357 12.60155218 15.75 20.4375 C15.93046875 21.24058594 16.1109375 22.04367188 16.296875 22.87109375 C17.11045707 25.33443946 17.97993851 26.39669877 20 28 C22.78771931 28.92923977 24.58234248 29.14867338 27.47143555 29.20532227 C28.37214279 29.22526749 29.27285004 29.24521271 30.20085144 29.26576233 C31.16968765 29.28247482 32.13852386 29.29918732 33.13671875 29.31640625 C34.62858452 29.3475779 34.62858452 29.3475779 36.15058899 29.37937927 C39.32948867 29.44479412 42.50847134 29.5037224 45.6875 29.5625 C47.84180548 29.60569288 49.99610254 29.64930742 52.15039062 29.69335938 C57.43350588 29.80046726 62.71670379 29.90224873 68 30 C68.10174294 46.95819957 68.12624408 63.91991164 67.75 80.875 C67.73590088 82.13844238 67.72180176 83.40188477 67.70727539 84.70361328 C67.67496826 85.87134277 67.64266113 87.03907227 67.609375 88.2421875 C67.58842773 89.2616748 67.56748047 90.28116211 67.54589844 91.33154297 C66.85680271 94.699976 65.66563072 95.88844745 63 98 C59.66393801 99.11202066 57.18991913 99.12141673 53.67459106 99.11593628 C53.03035435 99.11623498 52.38611763 99.11653368 51.72235858 99.11684144 C49.5598254 99.11648511 47.39738177 99.10881018 45.23486328 99.10107422 C43.68590333 99.09911547 42.13694287 99.0975326 40.58798218 99.09629822 C35.49872774 99.09013434 30.40953587 99.07290801 25.3203125 99.0546875 C23.56864301 99.0488965 21.81697345 99.04313003 20.0653038 99.03738785 C12.78042856 99.01271327 5.49557401 98.98516101 -1.78925896 98.95004082 C-12.23243714 98.89978372 -22.67535307 98.86641042 -33.11865032 98.85675228 C-40.46066458 98.84861075 -47.80245988 98.82147207 -55.14436162 98.78014576 C-59.53035942 98.75594705 -63.91601942 98.74008233 -68.30208969 98.74441147 C-72.42768367 98.74804643 -76.55249895 98.72816983 -80.67791367 98.69023323 C-82.1915883 98.68039288 -83.70534579 98.67905419 -85.21903229 98.68686104 C-87.28713449 98.69623017 -89.35275365 98.67491016 -91.42062378 98.64596558 C-92.57726469 98.64190138 -93.7339056 98.63783718 -94.92559624 98.63364983 C-98.9506418 97.80406802 -100.45936666 96.16232454 -103 93 C-103.60127258 90.00700378 -103.60127258 90.00700378 -103.56762695 86.64916992 C-103.5672493 85.3882402 -103.56687164 84.12731049 -103.56648254 82.82817078 C-103.54095324 81.46225994 -103.51487333 80.09635931 -103.48828125 78.73046875 C-103.47894859 77.32515218 -103.47183461 75.91981928 -103.46684265 74.51448059 C-103.44780772 70.82661541 -103.39873971 67.13974449 -103.34332275 63.45227051 C-103.29205304 59.68511402 -103.2693123 55.91779589 -103.24414062 52.15039062 C-103.19061537 44.7664752 -103.10534782 37.38337724 -103 30 C-101.69329346 29.98541748 -100.38658691 29.97083496 -99.0402832 29.95581055 C-94.18518925 29.89777185 -89.33055637 29.82053884 -84.47583008 29.73754883 C-82.37597139 29.70432578 -80.27602397 29.6762857 -78.17602539 29.65356445 C-75.15472656 29.61997064 -72.13423899 29.56765166 -69.11328125 29.51171875 C-67.70832146 29.50213387 -67.70832146 29.50213387 -66.27497864 29.49235535 C-61.40973363 29.38298617 -57.91061958 29.2334794 -54 26 C-52.69958716 23.7805208 -52.69958716 23.7805208 -51.9375 21.25 C-49.41569088 14.32006855 -46.57683057 9.03274954 -41 4 C-40.278125 3.319375 -39.55625 2.63875 -38.8125 1.9375 C-27.33650811 -5.9681833 -12.2360504 -6.8913072 0 0 Z " fill="#C8DAFC" transform="translate(274,4)"/>
<path d="M0 0 C4.10391862 -0.1177595 8.20739356 -0.18776774 12.3125 -0.25 C13.46041016 -0.28351562 14.60832031 -0.31703125 15.79101562 -0.3515625 C27.1342247 -0.48009745 35.80377143 1.89598891 44.05859375 9.85546875 C50.65893022 17.14638369 53.24637187 24.55666772 53.25726891 34.4523735 C53.26077498 35.1730253 53.26428105 35.89367709 53.26789337 36.63616681 C53.27718098 39.04566925 53.27229094 41.4549286 53.26742554 43.86444092 C53.27116313 45.61156004 53.27576509 47.35867748 53.28115618 49.10579228 C53.29338813 53.90302658 53.29312548 58.70019115 53.29076743 63.49743748 C53.29035931 68.67277158 53.30139793 73.84808331 53.31088257 79.02340698 C53.32749464 89.16154139 53.33299221 99.29965254 53.33410732 109.43779942 C53.3350577 117.6788656 53.3391675 125.9199241 53.34550858 134.16098785 C53.36312158 157.52702446 53.37234736 180.89304269 53.37084763 204.25908598 C53.37076772 205.51872433 53.3706878 206.77836267 53.37060547 208.07617188 C53.37052371 209.33734861 53.37044195 210.59852535 53.37035771 211.89791957 C53.3695448 232.33723165 53.38868352 252.77647003 53.4168822 273.2157608 C53.44560936 294.2037611 53.45942259 315.19172545 53.45769465 336.17974591 C53.45703069 347.96248057 53.46252568 359.74513797 53.48405075 371.52785492 C53.50226031 381.55996048 53.50661169 391.59195377 53.4930319 401.62406871 C53.48650116 406.74138205 53.48638905 411.85847999 53.5037384 416.97577286 C53.51946923 421.66393908 53.51660527 426.35171909 53.49917014 431.03987589 C53.49610029 432.73231588 53.49973208 434.4247847 53.51089029 436.11719069 C53.59304455 449.46608317 52.09779978 459.85324328 42.515625 469.83203125 C36.18452619 475.28818007 29.10873065 478.13666071 20.80078125 478.09765625 C19.59228516 478.09443359 18.38378906 478.09121094 17.13867188 478.08789062 C15.87603516 478.07951172 14.61339844 478.07113281 13.3125 478.0625 C11.40114258 478.05573242 11.40114258 478.05573242 9.45117188 478.04882812 C6.30073436 478.03702873 3.15039051 478.02056597 0 478 C2.6156103 476.66855264 5.15618443 475.56128445 7.9375 474.625 C11.54412287 473.31533248 14.06985639 471.49924014 17 469 C17.66 469 18.32 469 19 469 C19.2784375 468.41992188 19.556875 467.83984375 19.84375 467.2421875 C21.29768165 464.42273897 23.02807272 461.83576852 24.78125 459.1953125 C27.61936154 454.08307313 28.25089133 449.46358865 28.25726891 443.66788101 C28.26077498 442.94808347 28.26428105 442.22828593 28.26789337 441.48667634 C28.27719928 439.07406844 28.27228618 436.66170236 28.26742554 434.24908447 C28.27116221 432.50211571 28.2757638 430.75514863 28.28115618 429.00818419 C28.29339957 424.20675998 28.29312413 419.40540537 28.29076743 414.6039691 C28.2903596 409.42590986 28.30139519 404.24787304 28.31088257 399.06982422 C28.32750101 388.92453559 28.3329925 378.7792702 28.33410732 368.6339691 C28.33505742 360.38762632 28.3391658 352.14129122 28.34550858 343.89495087 C28.36312348 320.51794045 28.37234708 297.1409484 28.37084763 273.7639313 C28.37076772 272.50346483 28.3706878 271.24299836 28.37060547 269.94433594 C28.37052371 268.68233139 28.37044195 267.42032684 28.37035771 266.12007973 C28.36954479 245.66709547 28.38868322 225.21418487 28.4168822 204.76122192 C28.4456045 183.76308799 28.45942285 162.76499 28.45769465 141.76683593 C28.45703051 129.97685242 28.46253328 118.18694611 28.48405075 106.39698029 C28.50225394 96.35860028 28.50661695 86.32033247 28.4930319 76.28194311 C28.48649787 71.16071015 28.48640088 66.03969246 28.5037384 60.91847992 C28.51945479 56.22785887 28.51662005 51.53762404 28.49917014 46.84701249 C28.49609709 45.15254158 28.49974411 43.45804195 28.51089029 41.76360491 C28.59290923 28.40772021 26.88261021 19.08500871 17.3671875 9.1328125 C12.25797665 4.52946411 6.5717591 2.64293977 0 1 C0 0.67 0 0.34 0 0 Z " fill="#B38A68" transform="translate(391,34)"/>
<path d="M0 0 C7.99738263 -0.0927806 15.99453948 -0.16380514 23.99232769 -0.20724869 C27.70626049 -0.22810212 31.41982441 -0.25637755 35.13354492 -0.30175781 C38.71917648 -0.34529746 42.3044538 -0.369154 45.89032936 -0.37950897 C47.25667712 -0.38688594 48.62300602 -0.40129181 49.9892025 -0.42292023 C51.90626405 -0.45205572 53.82368391 -0.45363476 55.7409668 -0.45410156 C56.83128708 -0.46298401 57.92160736 -0.47186646 59.04496765 -0.48101807 C62.70536642 0.11481904 64.35912944 1.4499738 67 4 C68.42508372 6.85016744 68.12949104 9.25963311 68.13422108 12.4478426 C68.13657331 13.12062503 68.13892554 13.79340746 68.14134905 14.48657724 C68.14805821 16.76322826 68.14758025 19.03982245 68.14717102 21.31648254 C68.15046845 22.95631663 68.15419376 24.5961499 68.1583125 26.23598212 C68.16835429 30.75963795 68.17205278 35.28328052 68.17470181 39.80694592 C68.17859838 44.67890498 68.1881771 49.55085346 68.19691467 54.42280579 C68.21669666 66.19665997 68.22674715 77.97051504 68.23564246 89.7443817 C68.24002222 95.28408857 68.24538981 100.82379448 68.25063133 106.3635006 C68.26764478 124.77015516 68.28214027 143.17680912 68.28938007 161.58347034 C68.29129008 166.36236891 68.29321039 171.14126747 68.29516602 175.92016602 C68.29564976 177.10798814 68.2961335 178.29581026 68.2966319 179.519627 C68.3049371 198.77346752 68.33028178 218.02724601 68.36274669 237.28105942 C68.39578039 257.03263489 68.41382546 276.78417879 68.41702431 296.53578204 C68.41919276 307.63206145 68.42799022 318.72825039 68.45348549 329.82450294 C68.47514208 339.27206425 68.48326781 348.71951311 68.47351871 358.16709641 C68.46895943 362.98997725 68.47095432 367.81262585 68.49028015 372.63547516 C68.50780883 377.04781525 68.50699852 381.45975191 68.49138286 385.87209567 C68.48899104 387.47104241 68.49341117 389.07001634 68.50521151 390.66892133 C68.52023229 392.83798712 68.51072831 395.00560518 68.49498463 397.17463398 C68.49596144 398.38068076 68.49693824 399.58672755 68.49794465 400.82932121 C67.90121284 404.62903048 66.66628808 406.28042449 64 409 C61.52519377 410.23740312 59.90014929 410.12421815 57.13116264 410.12304783 C56.09609546 410.12503888 55.06102827 410.12702993 53.99459541 410.12908131 C52.8487004 410.12616847 51.70280538 410.12325563 50.52218628 410.12025452 C49.31174593 410.12110894 48.10130558 410.12196337 46.85418522 410.12284368 C43.48381659 410.12421043 40.11350549 410.12106838 36.7431438 410.11606562 C33.11260651 410.11176025 29.4820711 410.11320761 25.85153198 410.1139679 C19.55786592 410.11449308 13.26421019 410.1113469 6.97054672 410.10573006 C-2.12911248 410.09761425 -11.22876666 410.09499975 -20.32842909 410.09374207 C-35.09086311 410.09155167 -49.85329163 410.08489193 -64.61572266 410.07543945 C-78.95882133 410.06626501 -93.30191851 410.05918433 -107.64501953 410.05493164 C-108.9704574 410.05453756 -108.9704574 410.05453756 -110.32267179 410.05413551 C-114.7554156 410.0528305 -119.18815942 410.05156679 -123.62090325 410.05032361 C-160.4139394 410.03995139 -197.20696927 410.02233342 -234 410 C-234 409.67 -234 409.34 -234 409 C-233.13204521 408.99967395 -233.13204521 408.99967395 -232.24655598 408.99934131 C-197.97605132 408.98583479 -163.70568247 408.94639962 -129.43525393 408.87314438 C-125.32329142 408.86437729 -121.21132848 408.85582755 -117.09936523 408.84741211 C-115.87140296 408.84489352 -115.87140296 408.84489352 -114.61863337 408.84232404 C-101.35134141 408.81563104 -88.08409265 408.80655732 -74.8167766 408.80395857 C-61.21022221 408.80090256 -47.60379304 408.77899675 -33.9972952 408.73947543 C-25.59665614 408.71567265 -17.19626679 408.70669403 -8.7955986 408.71648689 C-3.04029674 408.72178962 2.71478071 408.70883568 8.47001866 408.6813371 C11.79413374 408.66599949 15.11732628 408.66159202 18.44152069 408.67340279 C22.04057436 408.68492878 25.63819534 408.66605121 29.23713684 408.63923645 C30.29451815 408.64990971 31.35189946 408.66058297 32.44132262 408.67157966 C33.40174616 408.65814102 34.36216969 408.64470238 35.35169697 408.63085651 C36.59850867 408.62914777 36.59850867 408.62914777 37.87050849 408.62740451 C40.20322456 408.15412065 40.20322456 408.15412065 41.76692373 405.88583159 C43.23763558 402.44384927 43.37600703 399.93787699 43.37752342 396.19583797 C43.38188374 395.52098279 43.38624407 394.8461276 43.39073652 394.15082225 C43.40170211 391.88500719 43.39126512 389.61979947 43.38095093 387.35398865 C43.38440698 385.71497522 43.38917119 384.07596412 43.39513266 382.4369579 C43.40767945 377.92948922 43.4014556 373.4222106 43.39217401 368.91474116 C43.38539895 364.05511653 43.39585703 359.19552507 43.40411377 354.33590698 C43.41746951 344.81478364 43.41456526 335.29373114 43.40587585 325.77260499 C43.39910734 318.03676779 43.39817897 310.30095048 43.4014473 302.56511116 C43.401907 301.46512509 43.40236669 300.36513902 43.40284032 299.23182004 C43.40379947 296.99740162 43.40477211 294.76298322 43.4057581 292.52856482 C43.41431728 271.56562049 43.40446936 250.60271549 43.388357 229.63977761 C43.37495148 211.64109832 43.37728283 193.64247707 43.39111328 175.64379883 C43.40715655 154.75555133 43.41349523 133.86733831 43.40427649 112.97908551 C43.40332081 110.75308137 43.4023777 108.52707722 43.4014473 106.30107307 C43.40075306 104.65810209 43.40075306 104.65810209 43.40004479 102.98193977 C43.39745128 95.25224321 43.40183363 87.52256847 43.40888596 79.79287529 C43.41728716 70.37756643 43.41504986 60.96233263 43.39904372 51.54703241 C43.39114267 46.74050263 43.38810057 41.93409814 43.39799118 37.1275692 C43.40690062 32.73148338 43.40206751 28.33563953 43.38605852 23.9395758 C43.38269477 22.34545442 43.38444035 20.75131279 43.39168589 19.15720432 C43.40075356 16.99728214 43.39150878 14.83819861 43.37752342 12.67832088 C43.37703637 11.47655836 43.37654931 10.27479584 43.37604749 9.03661627 C42.96707404 5.73412003 42.31610313 4.34687936 40 2 C38.10287713 1.39047371 38.10287713 1.39047371 35.98754883 1.45410156 C35.18694534 1.43438293 34.38634186 1.41466431 33.56147766 1.39434814 C32.70201035 1.39311951 31.84254303 1.39189087 30.95703125 1.390625 C29.63163582 1.36582062 29.63163582 1.36582062 28.27946472 1.34051514 C25.45707322 1.29192715 22.63522088 1.27064059 19.8125 1.25 C17.89906126 1.2218493 15.98564775 1.19192314 14.07226562 1.16015625 C9.38155479 1.08616545 4.69114517 1.03665698 0 1 C0 0.67 0 0.34 0 0 Z " fill="#D8E2F2" transform="translate(342,68)"/>
<path d="M0 0 C2.75296228 3.25322963 4.01876316 6.42268218 5.375 10.4453125 C5.80296875 11.68667969 6.2309375 12.92804688 6.671875 14.20703125 C7.33991699 16.17223738 8.00454829 18.13852816 8.66601562 20.10595703 C9.31032368 22.01369806 9.96748473 23.91708305 10.625 25.8203125 C11.00914062 26.95742676 11.39328125 28.09454102 11.7890625 29.26611328 C12.82871885 32.27300763 12.82871885 32.27300763 16 34 C18.9149255 34.5838196 18.9149255 34.5838196 22 34 C24.68767578 31.56249975 24.68767578 31.56249975 27 29 C30.46189102 29 31.06633417 29.53567024 33.72265625 31.58984375 C34.42583984 32.12673828 35.12902344 32.66363281 35.85351562 33.21679688 C36.58248047 33.78462891 37.31144531 34.35246094 38.0625 34.9375 C39.5107562 36.05203313 40.95993231 37.16537223 42.41015625 38.27734375 C43.05090088 38.77484131 43.69164551 39.27233887 44.35180664 39.78491211 C47.65754885 42.22198499 49.90919028 42.44381426 54 42 C56.54629086 40.68889381 58.74319135 39.00420061 61 37.25 C62.18687777 36.35854596 63.37437221 35.46791233 64.5625 34.578125 C65.41714844 33.9294043 65.41714844 33.9294043 66.2890625 33.26757812 C68.79607294 31.41021537 71.38724559 29.70466294 74 28 C74.61875 28.804375 75.2375 29.60875 75.875 30.4375 C78.37183935 33.44839451 79.03882649 33.89552462 82.875 34.3125 C86.018183 34.28028819 86.018183 34.28028819 88.03857422 32.39916992 C90.42198834 29.48383378 91.34661594 26.88028741 92.5078125 23.30078125 C92.82514847 22.34730049 92.82514847 22.34730049 93.14889526 21.3745575 C93.81897901 19.3574092 94.47318881 17.33561979 95.125 15.3125 C95.78552668 13.27927879 96.44950167 11.24742698 97.12252808 9.2183075 C97.72967226 7.38571903 98.32437242 5.54902184 98.91845703 3.7121582 C100 1 100 1 102 0 C109.95209168 6.69751411 116.75936542 13.49594085 119 24 C119.10203535 25.46361752 119.15786539 26.93090415 119.17700195 28.39794922 C119.19625481 29.68981644 119.19625481 29.68981644 119.21589661 31.00778198 C119.22328354 31.9307608 119.23067047 32.85373962 119.23828125 33.8046875 C119.246353 34.76142365 119.25442474 35.71815979 119.26274109 36.70388794 C119.2765564 38.72623902 119.28728994 40.74861316 119.29516602 42.77099609 C119.3067024 44.83682088 119.32718022 46.90261549 119.35668945 48.96826172 C119.39936585 51.9556094 119.41553389 54.94207283 119.42578125 57.9296875 C119.44328934 58.84861786 119.46079742 59.76754822 119.47883606 60.71432495 C119.45989599 66.33082218 118.76505647 69.55215679 115 74 C108.78396761 79.73787605 103.58777706 80.2786248 95.4765625 80.140625 C93.30631595 80.12164769 91.13606847 80.10277675 88.96582031 80.08398438 C87.72384888 80.06972412 86.48187744 80.05546387 85.20227051 80.04077148 C80.46141665 79.99009605 75.72057385 79.97671204 70.97949219 79.96289062 C62.42339682 79.93640299 53.86772701 79.88512923 45.31187057 79.81606293 C40.30945951 79.77625203 35.30723911 79.74417868 30.3046875 79.72900391 C25.39441861 79.71386524 20.48462895 79.67953579 15.57457352 79.63169098 C13.72071097 79.6169217 11.86678053 79.60896156 10.01285934 79.60811615 C7.43691891 79.60575121 4.86232842 79.57873516 2.28662109 79.54589844 C1.15526482 79.55344398 1.15526482 79.55344398 0.00105286 79.56114197 C-5.13396863 79.4598905 -8.03066377 78.21286151 -12 75 C-15.54718471 71.06933586 -17.10543342 68.15670719 -17.17700195 62.87084961 C-17.18983719 62.04246078 -17.20267242 61.21407196 -17.21589661 60.36058044 C-17.22328354 59.46686234 -17.23067047 58.57314423 -17.23828125 57.65234375 C-17.246353 56.7258754 -17.25442474 55.79940704 -17.26274109 54.84486389 C-17.27657628 52.88040025 -17.28730097 50.91591263 -17.29516602 48.95141602 C-17.30665034 46.95459894 -17.32704545 44.95781169 -17.35668945 42.96118164 C-17.39966643 40.06635811 -17.41558001 37.172448 -17.42578125 34.27734375 C-17.44328934 33.39779526 -17.46079742 32.51824677 -17.47883606 31.61204529 C-17.44461457 21.66395976 -13.65561659 13.32900838 -7 6 C-4.75180755 3.8829898 -2.43327621 1.9005471 0 0 Z " fill="#C1E2A0" transform="translate(205,279)"/>
<path d="M0 0 C13.4477143 -0.29847589 24.75084926 0.10577988 35.4765625 9.21875 C44.8564576 18.65447781 46.88659173 28.94702464 46.90429688 41.83203125 C46.90002686 42.59032227 46.89575684 43.34861328 46.89135742 44.12988281 C46.88277808 46.4585624 46.91179474 48.78483865 46.94335938 51.11328125 C46.94497014 52.60546802 46.94439625 54.0976591 46.94140625 55.58984375 C46.95264023 56.27951233 46.96387421 56.96918091 46.97544861 57.67974854 C46.90680692 62.44524268 45.80639489 64.84950063 42.4453125 68.19921875 C37.74729853 70.54822573 31.75938359 69.51348452 26.8828125 68.07421875 C18.65992409 65.00854258 11.38039537 58.80074979 7.29296875 51 C6.28199181 48.75296069 5.34571502 46.49262067 4.4453125 44.19921875 C2.89600429 39.41755029 2.89600429 39.41755029 -0.5546875 36.19921875 C-4.84042455 35.90176907 -9.13484455 35.92116936 -13.4296875 35.88671875 C-14.62722656 35.85771484 -15.82476562 35.82871094 -17.05859375 35.79882812 C-18.20972656 35.79044922 -19.36085937 35.78207031 -20.546875 35.7734375 C-22.13024658 35.75156372 -22.13024658 35.75156372 -23.74560547 35.72924805 C-27.25229629 36.3159315 -28.37343258 37.45144084 -30.5546875 40.19921875 C-31.73334623 42.78343683 -31.73334623 42.78343683 -32.5546875 45.57421875 C-35.86626751 55.17780077 -41.70421269 61.85875363 -50.7421875 66.57421875 C-53.67789587 67.90811343 -56.32197496 68.8759475 -59.5546875 69.19921875 C-60.18375 69.26238281 -60.8128125 69.32554687 -61.4609375 69.390625 C-65.31822859 69.6137146 -67.11569758 69.47008487 -70.4921875 67.38671875 C-75.19678868 62.39699023 -73.81570521 54.94111744 -73.84985352 48.47802734 C-73.86130129 46.97304834 -73.88163728 45.46810759 -73.91137695 43.96337891 C-74.158157 31.46445183 -72.83011503 21.12558905 -64.546875 11.20703125 C-57.20304535 3.80560294 -49.39730423 0.94096379 -39.0625 0.78515625 C-38.24750031 0.76556351 -37.43250061 0.74597076 -36.59280396 0.7257843 C-33.9552001 0.66524918 -31.31760686 0.61874148 -28.6796875 0.57421875 C-26.86295045 0.53909017 -25.04621866 0.50368863 -23.22949219 0.46801758 C-19.64233185 0.39983597 -16.05514205 0.33880387 -12.46777344 0.28271484 C-8.31075478 0.21622734 -4.1559807 0.11342868 0 0 Z " fill="#827E84" transform="translate(269.5546875,135.80078125)"/>
<path d="M0 0 C1.12637878 -0.0142804 2.25275757 -0.02856079 3.41326904 -0.04327393 C5.3900675 -0.06926341 7.36677283 -0.10619371 9.34307861 -0.15740967 C14.06660242 -0.20420191 17.33365276 -0.09955295 21.08789062 3.11914062 C24.07824562 7.48080392 23.41773321 12.46832728 23.40039062 17.55664062 C23.41650391 18.49830078 23.43261719 19.43996094 23.44921875 20.41015625 C23.45538821 29.15227579 23.45538821 29.15227579 20.08789062 33.11914062 C16.9515357 35.21004391 16.23162796 35.37136141 12.66067505 35.38656616 C11.75504822 35.39509613 10.84942139 35.4036261 9.91635132 35.41241455 C8.92511261 35.41150818 7.9338739 35.41060181 6.91259766 35.40966797 C5.86680542 35.41638519 4.82101318 35.42310242 3.74353027 35.43002319 C0.2775399 35.44906099 -3.18825743 35.45293034 -6.65429688 35.45507812 C-9.05941854 35.46150207 -11.46453942 35.46823012 -13.86965942 35.47525024 C-18.9152406 35.48723752 -23.96075324 35.49092958 -29.00634766 35.48974609 C-35.47525769 35.48954284 -41.94372875 35.51684621 -48.41253471 35.55129051 C-53.38133772 35.57351594 -58.35003436 35.57758496 -63.31888199 35.57652664 C-65.70393512 35.57888912 -68.0889909 35.58774884 -70.47399521 35.60319138 C-73.80898622 35.6227624 -77.1430213 35.61704759 -80.47802734 35.60498047 C-81.95881271 35.62183899 -81.95881271 35.62183899 -83.46951294 35.63903809 C-87.81268576 35.59905551 -90.23853944 35.53452904 -94.0017395 33.21377563 C-98.20552791 28.60450992 -97.17275304 23.19724832 -97.22460938 17.24414062 C-97.25361328 16.14199219 -97.28261719 15.03984375 -97.3125 13.90429688 C-97.32087891 12.84339844 -97.32925781 11.7825 -97.33789062 10.68945312 C-97.35247314 9.71766113 -97.36705566 8.74586914 -97.38208008 7.74462891 C-96.75343331 4.23269781 -95.74778721 3.27222978 -92.91210938 1.11914062 C-90.1557491 0.71577893 -87.79257036 0.55457329 -85.03613281 0.57324219 C-84.24504623 0.56290451 -83.45395966 0.55256683 -82.63890076 0.54191589 C-80.01622276 0.51237705 -77.39431626 0.51098416 -74.77148438 0.50976562 C-72.92896083 0.49475823 -71.08645061 0.47802578 -69.24395752 0.45965576 C-64.37383466 0.41586707 -59.50389097 0.39598695 -54.63360596 0.38092041 C-49.76929446 0.36163701 -44.90519135 0.31947985 -40.04101562 0.27929688 C-31.75310538 0.21344324 -23.46541605 0.17566182 -15.17728424 0.15306854 C-10.11713771 0.13642438 -5.05947577 0.08407731 0 0 Z " fill="#827E85" transform="translate(352.912109375,391.880859375)"/>
<path d="M0 0 C1.04479774 -0.00744736 1.04479774 -0.00744736 2.11070251 -0.01504517 C4.41088866 -0.02962583 6.71100573 -0.03646372 9.01123047 -0.04199219 C10.61823527 -0.04774922 12.22524007 -0.05350688 13.83224487 -0.05926514 C17.20310789 -0.06976503 20.57394715 -0.07561358 23.94482422 -0.07910156 C28.24178882 -0.08456883 32.53843377 -0.10856298 36.83529854 -0.13707352 C40.1572457 -0.15580214 43.47911765 -0.16091101 46.80111313 -0.16243744 C48.38378512 -0.16544404 49.96645643 -0.17340435 51.54907608 -0.18662262 C61.82987759 -0.26632498 70.71203592 0.3498827 80.00341797 5.16113281 C78.02920481 12.79364008 75.7268738 20.2408674 73.06591797 27.66113281 C72.73140625 28.63566406 72.39689453 29.61019531 72.05224609 30.61425781 C71.71773438 31.54753906 71.38322266 32.48082031 71.03857422 33.44238281 C70.74345947 34.27833984 70.44834473 35.11429687 70.14428711 35.97558594 C68.79406274 38.56219167 67.49249102 39.66940293 65.00341797 41.16113281 C61.09587593 41.74310716 59.54526658 41.53057505 56.25341797 39.28613281 C54.81812949 37.93058258 53.39940677 36.55712161 52.00341797 35.16113281 C51.49891113 35.54970459 50.9944043 35.93827637 50.47460938 36.33862305 C48.19387776 38.09369882 45.91117615 39.84619386 43.62841797 41.59863281 C42.83435547 42.21029297 42.04029297 42.82195312 41.22216797 43.45214844 C40.46162109 44.03544922 39.70107422 44.61875 38.91748047 45.21972656 C38.21574707 45.75911865 37.51401367 46.29851074 36.79101562 46.85424805 C33.40614725 49.32887252 31.19450441 49.61582615 27.00341797 49.16113281 C24.45712711 47.85002662 22.26022661 46.16533342 20.00341797 44.41113281 C18.8165402 43.51967877 17.62904576 42.62904514 16.44091797 41.73925781 C15.87115234 41.30677734 15.30138672 40.87429688 14.71435547 40.42871094 C12.20734503 38.57134818 9.61617238 36.86579575 7.00341797 35.16113281 C6.38466797 35.96550781 5.76591797 36.76988281 5.12841797 37.59863281 C2.6627914 40.57188838 1.9600791 41.033578 -1.80908203 41.53613281 C-6.12111544 41.02883476 -7.20539918 39.42197656 -9.99658203 36.16113281 C-11.48217773 33.07080078 -11.48217773 33.07080078 -12.67236328 29.65332031 C-13.32495117 27.80287109 -13.32495117 27.80287109 -13.99072266 25.91503906 C-14.31520386 24.96008545 -14.31520386 24.96008545 -14.64624023 23.98583984 C-15.31128835 22.02964305 -15.99670447 20.08154618 -16.68603516 18.13378906 C-19.99658203 8.62530105 -19.99658203 8.62530105 -19.99658203 5.16113281 C-18.58180068 4.51117984 -17.16466716 3.86634559 -15.74658203 3.22363281 C-14.95767578 2.86398437 -14.16876953 2.50433594 -13.35595703 2.13378906 C-8.81796755 0.26299539 -4.92062159 0.02671189 0 0 Z " fill="#FEDF7D" transform="translate(225.99658203125,272.8388671875)"/>
<path d="M0 0 C2.16991957 -0.03724379 4.33984137 -0.07435846 6.50976562 -0.11132812 C7.50913147 -0.14393738 8.50849731 -0.17654663 9.53814697 -0.21014404 C13.95044673 -0.26497364 16.41649467 -0.29315558 20.25292969 2.04589844 C24.33361164 6.58022285 23.409561 11.63253542 23.46289062 17.46679688 C23.50639648 19.0359082 23.50639648 19.0359082 23.55078125 20.63671875 C23.61483746 28.37766516 23.61483746 28.37766516 21.25585938 32.32226562 C17.55684077 35.5408922 15.06467701 35.2989572 10.2097168 35.34716797 C9.49569199 35.35534546 8.78166718 35.36352295 8.04600525 35.37194824 C5.67846517 35.39679989 3.31098505 35.41331768 0.94335938 35.42773438 C0.13502466 35.43305805 -0.67331005 35.43838173 -1.50613976 35.44386673 C-5.78476387 35.47059751 -10.06335881 35.48997247 -14.34204102 35.50439453 C-18.76082706 35.52104123 -23.1788671 35.56581856 -27.5973711 35.61676598 C-30.99546665 35.65042692 -34.39338488 35.66197062 -37.7916317 35.66762161 C-39.4203429 35.6743375 -41.04904229 35.68956852 -42.67759132 35.71351242 C-44.95926262 35.74514439 -47.23891884 35.74520499 -49.52075195 35.73779297 C-51.46695183 35.74992325 -51.46695183 35.74992325 -53.45246887 35.76229858 C-57.72755522 34.99716691 -59.19402806 33.52064325 -61.84960938 30.15429688 C-62.48071289 27.35522461 -62.48071289 27.35522461 -62.47851562 24.33789062 C-62.48044922 23.24412109 -62.48238281 22.15035156 -62.484375 21.0234375 C-62.46052734 19.89099609 -62.43667969 18.75855469 -62.41210938 17.59179688 C-62.42306641 16.45548828 -62.43402344 15.31917969 -62.4453125 14.1484375 C-62.3735813 6.04281171 -62.3735813 6.04281171 -60.4831543 2.8371582 C-56.27425296 0.1476285 -52.04155318 0.55082036 -47.14648438 0.54492188 C-45.54235687 0.52011749 -45.54235687 0.52011749 -43.90582275 0.49481201 C-40.47036351 0.44626728 -37.0353374 0.42504344 -33.59960938 0.40429688 C-31.36390937 0.3761117 -29.12823066 0.34618075 -26.89257812 0.31445312 C-22.4373982 0.25508109 -17.98287276 0.21826852 -13.52734375 0.19921875 C-9.0162264 0.17903404 -4.5098572 0.10738523 0 0 Z " fill="#C9DBFD" transform="translate(198.849609375,391.845703125)"/>
<path d="M0 0 C1.0660144 0.72425171 1.0660144 0.72425171 2.15356445 1.46313477 C7.46786949 4.9771949 11.9031026 7.78873919 18.1875 8.9375 C19.29480469 9.15277344 20.40210938 9.36804688 21.54296875 9.58984375 C22.75919922 9.79287109 22.75919922 9.79287109 24 10 C24.08840346 13.93735417 24.1408564 17.87444724 24.1875 21.8125 C24.21263672 22.91271484 24.23777344 24.01292969 24.26367188 25.14648438 C24.40206387 40.78477951 19.46679504 53.21084147 8.6640625 64.5234375 C4.7523422 68.15984611 0.79776364 70.68918286 -4 73 C-4.92941406 73.4846875 -5.85882813 73.969375 -6.81640625 74.46875 C-16.69975148 79.01281677 -26.37121691 78.47686465 -37 78 C-37.33 77.34 -37.66 76.68 -38 76 C-37.33355469 75.8040625 -36.66710937 75.608125 -35.98046875 75.40625 C-22.41755082 71.00541509 -12.23017347 62.5667471 -5.6875 49.9375 C-2.15629286 42.72996761 -0.70458333 36.16442717 -0.5859375 28.22265625 C-0.56657135 27.41130722 -0.5472052 26.59995819 -0.5272522 25.76402283 C-0.46793034 23.19695228 -0.42126264 20.62983571 -0.375 18.0625 C-0.33677648 16.31183044 -0.29772226 14.56117881 -0.2578125 12.81054688 C-0.16226844 8.54051184 -0.07806463 4.2703889 0 0 Z " fill="#F1D0AC" transform="translate(283,195)"/>
<path d="M0 0 C8.56005361 4.40972459 13.44330207 11.22583196 17 20 C17.83628404 22.85498499 18.13824878 25.42705736 18.17700195 28.39794922 C18.19625481 29.68981644 18.19625481 29.68981644 18.21589661 31.00778198 C18.22328354 31.9307608 18.23067047 32.85373962 18.23828125 33.8046875 C18.246353 34.76142365 18.25442474 35.71815979 18.26274109 36.70388794 C18.2765564 38.72623902 18.28728994 40.74861316 18.29516602 42.77099609 C18.3067024 44.83682088 18.32718022 46.90261549 18.35668945 48.96826172 C18.39936585 51.9556094 18.41553389 54.94207283 18.42578125 57.9296875 C18.44328934 58.84861786 18.46079742 59.76754822 18.47883606 60.71432495 C18.45990553 66.32799157 17.77274667 69.56061265 14 74 C9.53275719 77.93542819 7.24330925 79.12749146 1.3359375 79.09765625 C-0.34628906 79.09282227 -0.34628906 79.09282227 -2.0625 79.08789062 C-3.238125 79.07951172 -4.41375 79.07113281 -5.625 79.0625 C-6.80835938 79.05798828 -7.99171875 79.05347656 -9.2109375 79.04882812 C-12.14067507 79.03701467 -15.07031272 79.02054258 -18 79 C-16.515 78.01 -16.515 78.01 -15 77 C-10.25187017 73.537822 -7.80442964 70.71764169 -6 65 C-5.61801072 62.1806203 -5.6245832 59.41564218 -5.671875 56.57421875 C-5.67374817 55.78658646 -5.67562134 54.99895416 -5.67755127 54.18745422 C-5.68423881 52.52930435 -5.69808712 50.87116937 -5.71875 49.21313477 C-5.74978239 46.70508747 -5.75971925 44.19767318 -5.765625 41.68945312 C-5.79665442 32.0181558 -5.79665442 32.0181558 -6.6953125 22.3984375 C-7.29146904 17.40400647 -5.97318707 13.54153935 -4.125 8.9375 C-3.84269531 8.18017578 -3.56039063 7.42285156 -3.26953125 6.64257812 C-1.21552579 1.21552579 -1.21552579 1.21552579 0 0 Z " fill="#A8D4A4" transform="translate(306,279)"/>
<path d="M0 0 C7.92 0 15.84 0 24 0 C24.09340687 16.95853574 24.12625264 33.91952584 23.75 50.875 C23.73590088 52.13844238 23.72180176 53.40188477 23.70727539 54.70361328 C23.6588147 56.45520752 23.6588147 56.45520752 23.609375 58.2421875 C23.5779541 59.77141846 23.5779541 59.77141846 23.54589844 61.33154297 C22.84283883 64.76823417 21.83502308 65.96105618 19 68 C16.34277344 68.45410156 16.34277344 68.45410156 13.359375 68.390625 C12.28945313 68.37773438 11.21953125 68.36484375 10.1171875 68.3515625 C9.00601562 68.31804687 7.89484375 68.28453125 6.75 68.25 C5.62335938 68.23195313 4.49671875 68.21390625 3.3359375 68.1953125 C0.55643104 68.14820222 -2.2213534 68.08243361 -5 68 C-4.35256836 67.30181152 -3.70513672 66.60362305 -3.03808594 65.88427734 C0.46825663 60.57800196 -0.39441653 53.97146489 -0.390625 47.8515625 C-0.37563091 46.47006299 -0.35890117 45.08858133 -0.34051514 43.7071228 C-0.29696625 40.08712913 -0.27687065 36.46737721 -0.26177979 32.84716797 C-0.2421633 29.14666523 -0.2001986 25.44642186 -0.16015625 21.74609375 C-0.08498919 14.49743298 -0.03668446 7.24897639 0 0 Z " fill="#AEC9FA" transform="translate(318,34)"/>
<path d="M0 0 C3.95807715 -0.11761144 7.91569621 -0.18771882 11.875 -0.25 C13.53789062 -0.30027344 13.53789062 -0.30027344 15.234375 -0.3515625 C26.02622253 -0.47852541 34.04491511 2.11860787 41.953125 9.578125 C48.49350169 17.31673864 51.13476168 25.73923345 51.23828125 35.65234375 C51.246353 36.38949112 51.25442474 37.12663849 51.26274109 37.88612366 C51.27653854 39.44188107 51.28728 40.99766819 51.29516602 42.5534668 C51.30670965 44.14112239 51.32719919 45.72873846 51.35668945 47.31616211 C51.39938929 49.61598953 51.4155344 51.91466907 51.42578125 54.21484375 C51.44328934 54.9201976 51.46079742 55.62555145 51.47883606 56.35227966 C51.46303288 59.95749893 51.08326142 61.87197047 49.09838867 64.92407227 C46.3074576 67.68512949 44.75749105 68.16915363 40.9375 68.25 C36.06076443 68.19467237 31.32416705 67.34547454 27 65 C25.81423372 61.44270117 25.93091113 58.27991371 26.0078125 54.5859375 C26.02534674 53.08724656 26.04225327 51.58854818 26.05859375 50.08984375 C26.08937958 47.73985884 26.12469692 45.39025292 26.17138672 43.04052734 C26.41271693 30.21206419 25.49279924 20.20288778 17 10 C12.00838977 5.16635212 6.66356003 2.75843945 0 1 C0 0.67 0 0.34 0 0 Z " fill="#766F79" transform="translate(265,137)"/>
<path d="M0 0 C0.79339783 0.00141495 1.58679565 0.0028299 2.40423584 0.00428772 C4.93098772 0.0098721 7.45765004 0.02242171 9.984375 0.03515625 C11.70051955 0.04017327 13.41666549 0.04473582 15.1328125 0.04882812 C19.33336769 0.05983641 23.53385617 0.07709029 27.734375 0.09765625 C26.12422856 4.78346487 23.59678556 8.61024931 20.8671875 12.69921875 C20.3911911 13.41749847 19.9151947 14.1357782 19.42477417 14.87582397 C18.42013652 16.3885065 17.41309691 17.8995962 16.40380859 19.40917969 C14.86351781 21.71645055 13.33571839 24.03165647 11.80859375 26.34765625 C10.82887366 27.81950903 9.8484291 29.29087988 8.8671875 30.76171875 C8.18573166 31.79771713 8.18573166 31.79771713 7.49050903 32.85464478 C5.24370322 36.19258484 3.29655488 39.04625148 -0.265625 41.09765625 C-3.203125 41.59765625 -3.203125 41.59765625 -6.265625 41.09765625 C-10.34481098 37.6643381 -12.20039931 34.58894429 -13.94140625 29.58984375 C-14.59399414 27.73939453 -14.59399414 27.73939453 -15.25976562 25.8515625 C-15.58424683 24.89660889 -15.58424683 24.89660889 -15.9152832 23.92236328 C-16.58033132 21.96616649 -17.26574744 20.01806962 -17.95507812 18.0703125 C-21.265625 8.56182448 -21.265625 8.56182448 -21.265625 5.09765625 C-19.85084365 4.44770328 -18.43371013 3.80286903 -17.015625 3.16015625 C-16.22671875 2.80050781 -15.4378125 2.44085938 -14.625 2.0703125 C-9.74234622 0.05743039 -5.23450019 -0.03523261 0 0 Z " fill="#FEDF7D" transform="translate(227.265625,272.90234375)"/>
<path d="M0 0 C4.07198095 1.35732698 5.42114936 4.09221618 7.703125 7.51953125 C8.14517273 8.17451096 8.58722046 8.82949066 9.04266357 9.50431824 C9.9746402 10.89113715 10.90237457 12.28081496 11.82617188 13.6730957 C13.24411478 15.80365703 14.68353289 17.91850983 16.125 20.03320312 C17.02738973 21.38191151 17.92847606 22.73149308 18.828125 24.08203125 C19.47796356 25.03067802 19.47796356 25.03067802 20.14093018 25.99848938 C23.00523351 30.374697 23.00523351 30.374697 22.98120117 33.24609375 C21.7619216 35.42556736 20.49129571 36.50930765 18.47265625 37.98046875 C17.76302734 38.50447266 17.05339844 39.02847656 16.32226562 39.56835938 C15.57654297 40.10267578 14.83082031 40.63699219 14.0625 41.1875 C13.32064453 41.73341797 12.57878906 42.27933594 11.81445312 42.84179688 C3.8916604 48.6384367 3.8916604 48.6384367 -2 48 C-4.56764243 46.69029088 -6.78474693 45.00705329 -9.0625 43.25 C-9.66126953 42.8065625 -10.26003906 42.363125 -10.87695312 41.90625 C-14.31259114 39.34739584 -17.66963735 36.69450891 -21 34 C-20.10376001 29.73516626 -17.94725583 26.6045164 -15.52734375 23.046875 C-15.0848378 22.38665344 -14.64233185 21.72643188 -14.18641663 21.04620361 C-12.77549723 18.94378885 -11.3566377 16.84687385 -9.9375 14.75 C-8.97798673 13.32327222 -8.01899613 11.89619278 -7.06054688 10.46875 C-4.71307083 6.9750611 -2.3584604 3.48628218 0 0 Z " fill="#F0CB86" transform="translate(255,274)"/>
<path d="M0 0 C1.04027344 0.58587891 1.04027344 0.58587891 2.1015625 1.18359375 C3.04902344 1.69212891 3.04902344 1.69212891 4.015625 2.2109375 C10.97983771 6.52138634 15.63710141 13.70250495 17.7890625 21.49609375 C18.04236328 22.66591797 18.04236328 22.66591797 18.30078125 23.859375 C19.33019989 26.84719984 21.04369631 28.81558072 23.1015625 31.18359375 C19.20612373 31.32912974 15.31138599 31.41774434 11.4140625 31.49609375 C10.31126953 31.53798828 9.20847656 31.57988281 8.07226562 31.62304688 C-0.08894282 31.74632797 -0.08894282 31.74632797 -4.05078125 28.9921875 C-5.84419116 26.26605277 -6.88696195 24.05910547 -7.7734375 20.93359375 C-10.99078678 11.44752029 -16.13200262 5.99137116 -24.95703125 1.375 C-25.59769531 0.98183594 -26.23835937 0.58867188 -26.8984375 0.18359375 C-26.8984375 -0.47640625 -26.8984375 -1.13640625 -26.8984375 -1.81640625 C-18.61224693 -4.57846977 -7.80989763 -3.77434852 0 0 Z " fill="#AECAFC" transform="translate(271.8984375,2.81640625)"/>
<path d="M0 0 C3.91641711 -0.11618764 7.83239101 -0.18724654 11.75 -0.25 C13.41675781 -0.30027344 13.41675781 -0.30027344 15.1171875 -0.3515625 C16.18710937 -0.36445313 17.25703125 -0.37734375 18.359375 -0.390625 C19.34389648 -0.41157227 20.32841797 -0.43251953 21.34277344 -0.45410156 C24.73287671 0.12524354 25.86080992 1.37213143 28 4 C29.86630915 7.7326183 29.22798906 12.20470785 29.25 16.3125 C29.270625 17.26318359 29.29125 18.21386719 29.3125 19.19335938 C29.34090938 24.27508736 29.35802681 27.88726514 26 32 C25 33 25 33 22.68334961 33.11352539 C21.68311768 33.10828857 20.68288574 33.10305176 19.65234375 33.09765625 C18.57275391 33.09443359 17.49316406 33.09121094 16.38085938 33.08789062 C15.24455078 33.07951172 14.10824219 33.07113281 12.9375 33.0625 C11.79732422 33.05798828 10.65714844 33.05347656 9.48242188 33.04882812 C6.65489649 33.03699747 3.8274736 33.0205141 1 33 C1.48597656 32.23816406 1.97195313 31.47632813 2.47265625 30.69140625 C4.54047656 25.69373312 4.47637103 21.29110068 4.4375 15.9375 C4.45748047 14.95716797 4.47746094 13.97683594 4.49804688 12.96679688 C4.4949286 8.37357161 4.48594314 5.76308991 1.97265625 1.81640625 C0.99619141 0.91728516 0.99619141 0.91728516 0 0 Z " fill="#766F7A" transform="translate(347,393)"/>
<path d="M0 0 C3.91627663 -0.14522934 7.83186153 -0.23404757 11.75 -0.3125 C13.41675781 -0.3753418 13.41675781 -0.3753418 15.1171875 -0.43945312 C23.14904473 -0.56041483 23.14904473 -0.56041483 26.734375 1.80078125 C28.66849507 6.68980699 28.57805058 11.29012381 28.5 16.5 C28.51546875 17.53253906 28.5309375 18.56507813 28.546875 19.62890625 C28.52490584 23.8854318 28.31022427 27.23471783 26.703125 31.19921875 C22.2113197 34.19159193 17.50192634 33.51939407 12.25 33.3125 C11.17105469 33.28994141 10.09210938 33.26738281 8.98046875 33.24414062 C6.3189065 33.1852565 3.66015772 33.10307001 1 33 C1.32379639 32.4527124 1.64759277 31.9054248 1.98120117 31.34155273 C3.93024715 26.8619697 3.32674993 21.87612792 3.3125 17.0625 C3.32861328 15.97775391 3.34472656 14.89300781 3.36132812 13.77539062 C3.36197266 12.72673828 3.36261719 11.67808594 3.36328125 10.59765625 C3.36626221 9.64383057 3.36924316 8.69000488 3.37231445 7.70727539 C2.93609886 4.53534444 1.79856629 2.61774472 0 0 Z " fill="#AECAFC" transform="translate(194,393)"/>
<path d="M0 0 C0.99 0.01933594 0.99 0.01933594 2 0.0390625 C2.66 0.02617187 3.32 0.01328125 4 0 C7.17643516 1.05467574 8.25972651 2.86896241 10 5.6640625 C11.05175927 11.52490036 11.12606794 16.90872131 7.875 21.9765625 C4.44657382 23.98889961 2.9001417 24.47659202 -1 23.6640625 C-3.875 21.9765625 -3.875 21.9765625 -6 18.6640625 C-6.83475696 12.9949739 -7.31637732 7.77833154 -4.21484375 2.796875 C-2 0.6640625 -2 0.6640625 0 0 Z " fill="#AECAFC" transform="translate(254,26.3359375)"/>
<path d="M0 0 C4.17862962 0.87054784 5.56887157 2.12131491 8 5.625 C8.93951288 10.14283149 8.52484337 13.55344478 6.5 17.6875 C3.47101644 20.03496226 1.67201592 20.37165787 -2.09375 20.09765625 C-4 19.625 -4 19.625 -6.5 17.6875 C-8.52484337 13.55344478 -8.93951288 10.14283149 -8 5.625 C-5.56887157 2.12131491 -4.17862962 0.87054784 0 0 Z " fill="#858186" transform="translate(273,209.375)"/>
<path d="M0 0 C4.17862962 0.87054784 5.56887157 2.12131491 8 5.625 C8.93951288 10.14283149 8.52484337 13.55344478 6.5 17.6875 C3.47101644 20.03496226 1.67201592 20.37165787 -2.09375 20.09765625 C-4 19.625 -4 19.625 -6.5 17.6875 C-8.52484337 13.55344478 -8.93951288 10.14283149 -8 5.625 C-5.56887157 2.12131491 -4.17862962 0.87054784 0 0 Z " fill="#858086" transform="translate(239,209.375)"/>
</svg>
